<svg width="140" height="25" viewBox="0 0 140 25" fill="none" xmlns="http://www.w3.org/2000/svg">
<path d="M22 16.2711C22 19.9111 19.83 22.0811 16.19 22.0811H15C14.45 22.0811 14 21.6311 14 21.0811V15.3111C14 15.0411 14.22 14.8111 14.49 14.8111L16.25 14.7811C16.39 14.7711 16.51 14.6711 16.54 14.5311L16.89 12.6211C16.92 12.4411 16.78 12.2711 16.59 12.2711L14.46 12.3011C14.18 12.3011 13.96 12.0811 13.95 11.8111L13.91 9.36105C13.91 9.20105 14.04 9.06107 14.21 9.06107L16.61 9.02106C16.78 9.02106 16.91 8.89107 16.91 8.72107L16.87 6.32104C16.87 6.15104 16.74 6.02106 16.57 6.02106L13.87 6.06107C12.21 6.09107 10.89 7.45105 10.92 9.11105L10.97 11.8611C10.98 12.1411 10.76 12.3611 10.48 12.3711L9.28 12.3911C9.11 12.3911 8.98001 12.521 8.98001 12.691L9.01001 14.5911C9.01001 14.7611 9.14 14.8911 9.31 14.8911L10.51 14.8711C10.79 14.8711 11.01 15.0911 11.02 15.3611L11.11 21.0611C11.12 21.6211 10.67 22.0811 10.11 22.0811H7.81C4.17 22.0811 2 19.911 2 16.261V7.89105C2 4.25105 4.17 2.08105 7.81 2.08105H16.19C19.83 2.08105 22 4.25105 22 7.89105V16.2711Z" fill="#344054"/>
<path d="M46 4.08105H36C33 4.08105 31 6.08105 31 9.08105V15.0811C31 18.0811 33 20.0811 36 20.0811H46C49 20.0811 51 18.0811 51 15.0811V9.08105C51 6.08105 49 4.08105 46 4.08105ZM42.89 13.1111L40.42 14.5911C39.42 15.1911 38.6 14.7311 38.6 13.5611V10.5911C38.6 9.42106 39.42 8.96107 40.42 9.56107L42.89 11.041C43.84 11.621 43.84 12.5411 42.89 13.1111Z" fill="#344054"/>
<path d="M79.98 11.491C79.64 5.69101 74.37 1.22102 68.3 2.22102C64.12 2.91102 60.77 6.301 60.12 10.481C59.74 12.901 60.2401 15.191 61.3301 17.081L60.4401 20.391C60.2401 21.141 60.93 21.821 61.67 21.611L64.93 20.711C66.41 21.581 68.14 22.081 69.99 22.081C75.63 22.081 80.31 17.111 79.98 11.491ZM74.8801 15.801C74.7901 15.981 74.68 16.151 74.54 16.311C74.29 16.581 74.02 16.781 73.72 16.901C73.42 17.031 73.09 17.091 72.74 17.091C72.23 17.091 71.68 16.971 71.11 16.721C70.53 16.471 69.9601 16.141 69.3901 15.731C68.8101 15.311 68.2701 14.841 67.7501 14.331C67.2301 13.811 66.77 13.261 66.35 12.691C65.94 12.121 65.61 11.551 65.37 10.981C65.13 10.411 65.0101 9.86101 65.0101 9.34101C65.0101 9.00101 65.0701 8.67101 65.1901 8.37101C65.3101 8.06101 65.5001 7.78101 65.7701 7.53101C66.0901 7.21101 66.4401 7.06101 66.8101 7.06101C66.9501 7.06101 67.09 7.09101 67.22 7.15101C67.35 7.21101 67.4701 7.30101 67.5601 7.43101L68.72 9.07099C68.81 9.20099 68.88 9.311 68.92 9.421C68.97 9.531 68.99 9.631 68.99 9.731C68.99 9.851 68.9501 9.97101 68.8801 10.091C68.8101 10.211 68.72 10.331 68.6 10.451L68.22 10.851C68.16 10.911 68.1401 10.971 68.1401 11.051C68.1401 11.091 68.15 11.131 68.16 11.171C68.18 11.211 68.1901 11.241 68.2001 11.271C68.2901 11.441 68.45 11.651 68.67 11.911C68.9 12.171 69.1401 12.441 69.4001 12.701C69.6701 12.971 69.9301 13.211 70.2001 13.441C70.4601 13.661 70.68 13.811 70.85 13.901C70.88 13.911 70.9101 13.931 70.9401 13.941C70.9801 13.961 71.0201 13.961 71.0701 13.961C71.1601 13.961 71.2201 13.931 71.2801 13.871L71.66 13.491C71.79 13.361 71.9101 13.271 72.0201 13.211C72.1401 13.141 72.2501 13.101 72.3801 13.101C72.4801 13.101 72.5801 13.121 72.6901 13.171C72.8001 13.221 72.92 13.281 73.04 13.371L74.7001 14.551C74.8301 14.641 74.92 14.751 74.98 14.871C75.03 15.001 75.0601 15.121 75.0601 15.261C75.0001 15.431 74.9601 15.621 74.8801 15.801Z" fill="#344054"/>
<path d="M103.19 2.08105H94.81C91.17 2.08105 89 4.25105 89 7.89105V16.2611C89 19.9111 91.17 22.0811 94.81 22.0811H103.18C106.82 22.0811 108.99 19.9111 108.99 16.2711V7.89105C109 4.25105 106.83 2.08105 103.19 2.08105ZM99 15.9611C96.86 15.9611 95.12 14.2211 95.12 12.0811C95.12 9.94105 96.86 8.20105 99 8.20105C101.14 8.20105 102.88 9.94105 102.88 12.0811C102.88 14.2211 101.14 15.9611 99 15.9611ZM104.92 6.96105C104.87 7.08105 104.8 7.19105 104.71 7.29105C104.61 7.38105 104.5 7.45105 104.38 7.50105C104.26 7.55105 104.13 7.58105 104 7.58105C103.73 7.58105 103.48 7.48105 103.29 7.29105C103.2 7.19105 103.13 7.08105 103.08 6.96105C103.03 6.84105 103 6.71105 103 6.58105C103 6.45105 103.03 6.32105 103.08 6.20105C103.13 6.07105 103.2 5.97105 103.29 5.87105C103.52 5.64105 103.87 5.53105 104.19 5.60105C104.26 5.61105 104.32 5.63105 104.38 5.66105C104.44 5.68105 104.5 5.71105 104.56 5.75105C104.61 5.78105 104.66 5.83105 104.71 5.87105C104.8 5.97105 104.87 6.07105 104.92 6.20105C104.97 6.32105 105 6.45105 105 6.58105C105 6.71105 104.97 6.84105 104.92 6.96105Z" fill="#344054"/>
<path d="M136.107 8.71529C136.083 8.49182 136.055 8.31274 136.032 8.18511L137.916 5.3584C138.035 5.18068 138.027 4.94731 137.897 4.77756C137.768 4.60781 137.545 4.53917 137.342 4.60671L134.721 5.48027C134.583 5.27371 134.377 5.00125 134.104 4.7275C133.549 4.173 132.679 3.58105 131.5 3.58105C130.277 3.58105 129.373 3.92323 128.727 4.485C128.087 5.041 127.75 5.76974 127.577 6.45979C127.405 7.14894 127.39 7.82716 127.415 8.32477C127.422 8.46989 127.433 8.60123 127.444 8.71489C126.189 8.9818 124.876 8.57293 123.589 7.8094C122.171 6.96746 120.87 5.74406 119.854 4.7275C119.713 4.58651 119.501 4.54277 119.316 4.61618C119.131 4.6896 119.007 4.86614 119 5.06544C118.873 9.14225 119.713 14.0768 123.511 16.5791C121.914 17.4432 120.348 17.8462 118.438 18.0849C118.219 18.1122 118.044 18.2795 118.007 18.4966C117.97 18.7138 118.079 18.9297 118.276 19.0283C123.435 21.6076 130.12 21.4212 133.9 16.3811C135.467 14.2917 135.992 12.197 136.123 10.6226C136.189 9.83625 136.156 9.17914 136.107 8.71529Z" fill="#344054"/>
</svg>
